<svg width="25" height="24" viewBox="0 0 25 24" fill="none" xmlns="http://www.w3.org/2000/svg">
<path d="M9.57408 13.4843C9.57408 14.851 8.46716 15.9579 7.10052 15.9579C5.73387 15.9579 4.62695 14.851 4.62695 13.4843C4.62695 12.1177 5.73387 11.0107 7.10052 11.0107C8.46716 11.0107 9.57408 12.1177 9.57408 13.4843Z" fill="white"/>
<path d="M2.15234 19.5857C2.15234 17.8312 5.44837 16.9473 7.09947 16.9473C8.75058 16.9473 12.0466 17.8312 12.0466 19.5857V20.905H2.15234V19.5857Z" fill="white"/>
<path d="M20.4569 13.4843C20.4569 14.851 19.35 15.9579 17.9833 15.9579C16.6167 15.9579 15.5098 14.851 15.5098 13.4843C15.5098 12.1177 16.6167 11.0107 17.9833 11.0107C19.35 11.0107 20.4569 12.1177 20.4569 13.4843Z" fill="white"/>
<path d="M13.0371 19.5857C13.0371 17.8312 16.3331 16.9473 17.9842 16.9473C19.6353 16.9473 22.9314 17.8312 22.9314 19.5857V20.905H13.0371V19.5857Z" fill="white"/>
<path fill-rule="evenodd" clip-rule="evenodd" d="M9.81579 9.03178C12.4114 9.03178 14.5156 7.37058 14.5156 5.32143C14.5156 3.27226 12.4114 1.61108 9.81579 1.61108C7.22018 1.61108 5.11603 3.27226 5.11603 5.32143C5.11603 5.81921 5.24019 6.29409 5.46539 6.7278C4.96798 7.33749 4.84616 8.26057 4.82248 8.84077C4.81386 9.05191 5.06881 9.15991 5.23808 9.03341C5.57758 8.77967 6.11678 8.43555 6.81719 8.17855C7.63089 8.71145 8.67598 9.03178 9.81579 9.03178Z" fill="white"/>
<path fill-rule="evenodd" clip-rule="evenodd" d="M13.4141 8.96531C14.6931 8.10352 15.5098 6.79129 15.5098 5.3215C15.5098 4.92608 15.4507 4.54206 15.3394 4.17516C15.6313 4.1161 15.937 4.08472 16.2519 4.08472C18.301 4.08472 19.9622 5.41366 19.9622 7.05299C19.9622 7.52218 19.8262 7.96589 19.5839 8.36037C19.8127 8.74793 19.894 9.23389 19.9204 9.59953C19.9356 9.81028 19.6805 9.9208 19.5073 9.79969C19.293 9.64979 19.0011 9.47358 18.6427 9.32298C17.997 9.75868 17.1627 10.0213 16.2519 10.0213C15.1134 10.0213 14.0947 9.61106 13.4141 8.96531Z" fill="white"/>
</svg>
