<svg width="25" height="25" viewBox="0 0 25 25" fill="none" xmlns="http://www.w3.org/2000/svg">
<path d="M9.57408 14.2304C9.57408 15.597 8.46716 16.704 7.10052 16.704C5.73387 16.704 4.62695 15.597 4.62695 14.2304C4.62695 12.8638 5.73387 11.7568 7.10052 11.7568C8.46716 11.7568 9.57408 12.8638 9.57408 14.2304Z" fill="white"/>
<path d="M2.15234 20.3318C2.15234 18.5773 5.44837 17.6934 7.09947 17.6934C8.75058 17.6934 12.0466 18.5773 12.0466 20.3318V21.6511H2.15234V20.3318Z" fill="white"/>
<path d="M20.4569 14.2304C20.4569 15.597 19.35 16.704 17.9833 16.704C16.6167 16.704 15.5098 15.597 15.5098 14.2304C15.5098 12.8638 16.6167 11.7568 17.9833 11.7568C19.35 11.7568 20.4569 12.8638 20.4569 14.2304Z" fill="white"/>
<path d="M13.0371 20.3318C13.0371 18.5773 16.3331 17.6934 17.9842 17.6934C19.6353 17.6934 22.9314 18.5773 22.9314 20.3318V21.6511H13.0371V20.3318Z" fill="white"/>
<path fill-rule="evenodd" clip-rule="evenodd" d="M9.81579 9.77787C12.4114 9.77787 14.5156 8.11668 14.5156 6.06752C14.5156 4.01835 12.4114 2.35718 9.81579 2.35718C7.22018 2.35718 5.11603 4.01835 5.11603 6.06752C5.11603 6.56531 5.24019 7.04018 5.46539 7.4739C4.96798 8.08358 4.84616 9.00666 4.82248 9.58686C4.81386 9.79801 5.06881 9.906 5.23808 9.7795C5.57758 9.52577 6.11678 9.18164 6.81719 8.92464C7.63089 9.45754 8.67598 9.77787 9.81579 9.77787Z" fill="white"/>
<path fill-rule="evenodd" clip-rule="evenodd" d="M13.4141 9.7114C14.6931 8.84961 15.5098 7.53739 15.5098 6.06759C15.5098 5.67217 15.4507 5.28816 15.3394 4.92125C15.6313 4.86219 15.937 4.83081 16.2519 4.83081C18.301 4.83081 19.9622 6.15976 19.9622 7.79909C19.9622 8.26827 19.8262 8.71198 19.5839 9.10647C19.8127 9.49402 19.894 9.97998 19.9204 10.3456C19.9356 10.5564 19.6805 10.6669 19.5073 10.5458C19.293 10.3959 19.0011 10.2197 18.6427 10.0691C17.997 10.5048 17.1627 10.7674 16.2519 10.7674C15.1134 10.7674 14.0947 10.3572 13.4141 9.7114Z" fill="white"/>
</svg>
