<svg width="60" height="60" viewBox="0 0 60 60" fill="none" xmlns="http://www.w3.org/2000/svg">
<path d="M46.151 0.933105C39.7429 0.933105 34.5293 6.14619 34.5293 12.5542C34.5293 18.9625 39.7429 24.1756 46.151 24.1756C52.5591 24.1756 57.7721 18.9625 57.7721 12.5542C57.7721 6.14631 52.5589 0.933105 46.151 0.933105ZM46.151 20.1772C41.9491 20.1772 38.5283 16.7573 38.5283 12.5544C38.5283 8.35166 41.949 4.93178 46.151 4.93178C50.3568 4.93178 53.7735 8.35166 53.7735 12.5544C53.7735 16.7574 50.3566 20.1772 46.151 20.1772Z" fill="white"/>
<path d="M50.5351 13.2976L47.7315 12.129C47.6373 11.7734 47.4345 11.4766 47.1535 11.257V6.8757C47.1535 6.32316 46.7043 5.87598 46.1537 5.87598C45.5993 5.87598 45.1539 6.32316 45.1539 6.8757V11.2562C44.7598 11.5598 44.4863 12.0168 44.4863 12.5545C44.4863 13.4743 45.2285 14.22 46.1499 14.22C46.4544 14.22 46.724 14.1174 46.9659 13.9769L49.7659 15.1425C49.8909 15.1952 50.0234 15.2197 50.1525 15.2197C50.5432 15.2197 50.9139 14.9884 51.0739 14.6045C51.2847 14.0952 51.0466 13.5095 50.5351 13.2976Z" fill="white"/>
<path d="M21.4906 37.4695C28.4766 37.4695 33.8969 29.677 33.8969 22.974C33.8969 16.1323 28.3283 10.5659 21.4906 10.5659C14.6489 10.5659 9.08398 16.1323 9.08398 22.974C9.08398 29.6771 14.5005 37.4695 21.4906 37.4695ZM21.4906 15.0117C25.8796 15.0117 29.4487 18.5829 29.4487 22.9741C29.4487 27.4971 25.7779 33.0237 21.4906 33.0237C17.203 33.0237 13.5284 27.4969 13.5284 22.9741C13.5284 18.5829 17.0975 15.0117 21.4906 15.0117Z" fill="white"/>
<path d="M33.5834 31.6333C33.5992 31.8364 33.6224 32.0375 33.6224 32.2436C33.6224 35.9728 28.1398 44.3948 24.5474 49.5219L23.0714 42.2919L24.8209 40.5413C24.9051 40.4572 24.9051 40.3209 24.8211 40.2367L23.9712 39.3861C23.635 39.0495 23.1787 38.8604 22.703 38.8604H20.2712C19.7963 38.8604 19.3408 39.0488 19.0047 39.3844L18.3032 40.085C18.2225 40.1656 18.1771 40.2751 18.177 40.3892C18.1769 40.5033 18.2222 40.6128 18.3029 40.6935L19.9002 42.292L18.4244 49.522C14.8319 44.3937 9.35348 35.9728 9.35348 32.2437C9.35348 32.0377 9.3768 31.8365 9.38828 31.6334C5.11609 34.0768 2.23047 38.6701 2.23047 43.9446V53.4141C2.23047 56.5363 4.76113 59.0664 7.885 59.0664H35.091C38.211 59.0664 40.7411 56.5362 40.7411 53.4141V43.9446C40.7411 38.6711 37.8593 34.0778 33.5834 31.6333Z" fill="white"/>
</svg>
