<svg width="165" height="134" viewBox="0 0 165 134" fill="none" xmlns="http://www.w3.org/2000/svg">
    <g clip-path="url(#clip0_3616_14178)" opacity="0.2">
        <path d="M59.5486 57.596C58.6284 55.2061 57.0708 53.6006 53.3645 53.6006H30.3431C27.1709 53.6006 25.6139 55.2431 24.6912 57.5183L13.3086 85.5699C12.9086 86.5559 12.7721 87.6029 12.8927 88.6312C10.2801 90.1337 8.52017 92.8524 8.49981 95.9495C8.49825 96.1675 8.50796 96.3839 8.5233 96.5991L3.65938 96.5659C1.71776 96.5659 0.127253 98.1458 0.113785 100.088L8.76182e-05 116.634C-0.00648991 117.578 0.357466 118.47 1.02399 119.146C1.69082 119.822 2.57785 120.197 3.52219 120.204L27.1665 120.366V138.15C27.1665 141.935 30.2464 145.014 34.0319 145.014C37.8171 145.014 40.8966 141.935 40.8966 138.15V104.018H43.917V138.15C43.917 141.935 46.9968 145.014 50.7823 145.014C54.5678 145.014 57.6477 141.935 57.6477 138.15V87.3536L58.7925 90.327C59.687 92.6501 61.872 94.2162 64.359 94.3164C64.4423 94.3198 64.5256 94.3217 64.6092 94.3217C65.3747 94.3217 66.1286 94.1814 66.8496 93.9045C70.0573 92.6692 71.6616 89.0544 70.4266 85.8464L59.5486 57.596ZM22.3821 96.6937L12.7664 96.6279C12.7329 96.4137 12.711 96.1976 12.7126 95.978C12.7223 94.509 13.5376 93.2092 14.7732 92.4158C15.3354 92.9539 15.9979 93.3886 16.7408 93.6903C17.491 93.9944 18.2787 94.1488 19.0824 94.1488C19.1294 94.1488 19.1767 94.1482 19.2237 94.1469C20.0766 94.1278 20.895 93.9321 21.643 93.5954C22.1554 94.2989 22.4523 95.1411 22.446 96.0441C22.4445 96.2655 22.4188 96.481 22.3821 96.6937ZM26.8843 96.7247L26.6262 96.7228C26.6447 96.5083 26.6579 96.2922 26.6594 96.0738C26.6735 94.0289 25.9306 92.1433 24.6824 90.6549C24.7457 90.5252 24.8058 90.3931 24.8606 90.2578L26.8843 85.2701V96.7247Z" fill="#01458E"/>
        <path d="M42.8796 51.4092C51.5432 51.4092 58.5918 44.361 58.5918 35.6974C58.5918 27.0339 51.5432 19.9856 42.8796 19.9856C34.2183 19.9856 27.1719 27.0339 27.1719 35.6974C27.1716 44.361 34.218 51.4092 42.8796 51.4092Z" fill="#01458E"/>
        <path d="M164.889 100.088C164.876 98.1457 163.285 96.5659 161.319 96.5662L156.48 96.5991C156.495 96.3836 156.505 96.1678 156.503 95.9498C156.483 92.8255 154.691 90.0873 152.041 88.5933C152.167 87.5559 152.033 86.4985 151.629 85.5044L140.246 57.4531C139.363 55.2744 137.544 53.5188 134.34 53.5188H111.598C108.102 53.5188 106.414 55.0677 105.463 57.4537L94.2558 85.5751C92.9829 88.7687 94.5455 92.402 97.7387 93.6749C98.4792 93.969 99.2559 94.1181 100.047 94.1181C100.106 94.1181 100.165 94.1175 100.224 94.1156C102.712 94.0439 104.915 92.5032 105.837 90.1913L107.348 86.3992L107.277 138.15C107.277 141.935 110.357 145.014 114.142 145.014C117.928 145.014 121.007 141.935 121.007 138.15V102.736H124.106V138.149C124.106 141.934 127.186 145.014 130.971 145.014C134.757 145.014 137.837 141.934 137.837 138.149V120.366L161.481 120.203C162.425 120.197 163.312 119.821 163.979 119.146C164.646 118.47 165.009 117.578 165.003 116.633L164.889 100.088ZM138.376 96.7228L138.125 96.7247V85.3844L140.076 90.1926C140.144 90.3592 140.22 90.5208 140.301 90.6793C139.064 92.1636 138.329 94.0398 138.343 96.0747C138.345 96.2927 138.358 96.5086 138.376 96.7228ZM152.236 96.6279L142.62 96.694C142.584 96.4813 142.558 96.2658 142.556 96.045C142.55 95.1298 142.855 94.2769 143.379 93.5684C144.104 93.8819 144.893 94.063 145.713 94.0818C145.76 94.083 145.808 94.0836 145.855 94.0836C146.658 94.0836 147.446 93.9292 148.196 93.6251C148.934 93.326 149.591 92.895 150.15 92.3625C151.431 93.1509 152.28 94.4773 152.29 95.9786C152.291 96.1978 152.27 96.4143 152.236 96.6279Z" fill="#01458E"/>
        <path d="M122.118 51.4092C130.78 51.4092 137.826 44.361 137.826 35.6974C137.826 27.0339 130.78 19.9856 122.118 19.9856C113.455 19.9856 106.406 27.0339 106.406 35.6974C106.406 44.361 113.455 51.4092 122.118 51.4092Z" fill="#01458E"/>
        <path d="M69.7777 55.7794H82.7392L82.7533 58.392C82.758 59.2358 83.2334 59.803 83.9366 59.803C84.2069 59.803 84.4897 59.7191 84.7766 59.5537L94.309 54.0564C94.8202 53.762 95.1005 53.3505 95.0983 52.8979C95.0958 52.4453 94.8114 52.0368 94.2968 51.7474L84.7058 46.3532C84.0913 46.0074 83.4705 46.0441 83.0825 46.434C82.8269 46.6912 82.6928 47.0724 82.6953 47.5366L82.7094 50.145H69.778C68.2219 50.145 66.9609 51.406 66.9609 52.9621C66.9603 54.5184 68.2216 55.7794 69.7777 55.7794Z" fill="#01458E"/>
        <path d="M96.2712 67.7657C96.2712 66.2096 95.0102 64.9486 93.4541 64.9486H80.492L80.4779 62.3361C80.4732 61.4923 79.9977 60.925 79.2946 60.925C79.0243 60.925 78.7414 61.009 78.4545 61.1744L68.9221 66.6716C68.411 66.966 68.1306 67.3776 68.1328 67.8302C68.135 68.2828 68.4197 68.6912 68.9343 68.9806L78.5253 74.3748C78.8088 74.5343 79.0878 74.6154 79.3538 74.6154C79.6642 74.6154 79.9395 74.5045 80.1484 74.2943C80.404 74.0372 80.538 73.656 80.5355 73.1918L80.5214 70.5834H93.4535C95.0098 70.5827 96.2712 69.3217 96.2712 67.7657Z" fill="#01458E"/>
    </g>
    <defs>
        <clipPath id="clip0_3616_14178">
            <rect width="165" height="165" fill="white"/>
        </clipPath>
    </defs>
</svg>