<svg width="165" height="134" viewBox="0 0 165 134" fill="none" xmlns="http://www.w3.org/2000/svg">
    <g clip-path="url(#clip0_3616_14186)" opacity="0.2">
        <path d="M139.784 32.1406L83.9375 87.9868L96.4863 100.536L152.333 44.6894L139.784 32.1406Z" fill="#01458E"/>
        <path d="M128.844 7.33984L157.66 36.1565L165 0.000244141L128.844 7.33984Z" fill="#01458E"/>
        <path d="M74.396 25.1248L28.1719 71.3486L43.9542 75.1671L90.1777 28.9433L74.396 25.1248Z" fill="#01458E"/>
        <path d="M120.307 12.6645L64.4609 68.5107L77.0097 81.0595L132.856 25.2133L120.307 12.6645Z" fill="#01458E"/>
        <path d="M89.5604 107.464L57.5366 75.4404L55.1102 77.8668H55.1105L49.438 83.5393C47.1857 85.7913 45.9453 88.7858 45.9453 91.971C45.9453 95.1563 47.1857 98.1508 49.438 100.403L64.5974 115.562C66.8497 117.815 69.8442 119.055 73.0295 119.055C76.2148 119.055 79.2092 117.815 81.4616 115.562L87.1338 109.89L89.5604 107.464Z" fill="#01458E"/>
        <path d="M136.06 74.823L89.8359 121.047L93.6548 136.829L139.879 90.6053L136.06 74.823Z" fill="#01458E"/>
        <path d="M53.0827 111.918C41.5321 100.367 22.7369 100.367 11.1856 111.918C-5.79135 128.894 1.51441 158.388 1.83378 159.636L2.55372 162.446L5.36484 163.166C5.94943 163.316 12.737 165 21.5345 165C31.5074 165 44.0625 162.834 53.0827 153.815C64.6337 142.264 64.6337 123.469 53.0827 111.918ZM40.3813 141.113C35.4938 146.001 27.4465 147.026 21.5564 147.026L17.9854 147.006L17.9635 143.781C17.8894 132.913 21.1439 127.362 23.8877 124.619C26.0907 122.416 29.0191 121.203 32.1342 121.203C35.2492 121.203 38.1783 122.416 40.3813 124.619C42.5814 126.819 43.7931 129.748 43.7931 132.866C43.7931 135.984 42.5814 138.913 40.3813 141.113Z" fill="#01458E"/>
    </g>
    <defs>
        <clipPath id="clip0_3616_14186">
            <rect width="165" height="165" fill="white"/>
        </clipPath>
    </defs>
</svg>