<svg width="60" height="60" viewBox="0 0 60 60" fill="none" xmlns="http://www.w3.org/2000/svg">
<path fill-rule="evenodd" clip-rule="evenodd" d="M30 55C43.807 55 55 43.807 55 30C55 16.1929 43.807 5 30 5C16.1929 5 5 16.1929 5 30C5 43.807 16.1929 55 30 55ZM31.875 15C31.875 13.9645 31.0355 13.125 30 13.125C28.9645 13.125 28.125 13.9645 28.125 15V15.7918C24.0489 16.5217 20.625 19.584 20.625 23.75C20.625 28.543 25.157 31.875 30 31.875C33.4413 31.875 35.625 34.1393 35.625 36.25C35.625 38.3607 33.4413 40.625 30 40.625C26.5587 40.625 24.375 38.3607 24.375 36.25C24.375 35.2145 23.5355 34.375 22.5 34.375C21.4645 34.375 20.625 35.2145 20.625 36.25C20.625 40.416 24.0489 43.4783 28.125 44.2083V45C28.125 46.0355 28.9645 46.875 30 46.875C31.0355 46.875 31.875 46.0355 31.875 45V44.2083C35.951 43.4783 39.375 40.416 39.375 36.25C39.375 31.457 34.843 28.125 30 28.125C26.5587 28.125 24.375 25.8607 24.375 23.75C24.375 21.6393 26.5587 19.375 30 19.375C33.4413 19.375 35.625 21.6393 35.625 23.75C35.625 24.7855 36.4645 25.625 37.5 25.625C38.5355 25.625 39.375 24.7855 39.375 23.75C39.375 19.584 35.951 16.5217 31.875 15.7918V15Z" fill="white"/>
</svg>
