<svg width="60" height="60" viewBox="0 0 60 60" fill="none" xmlns="http://www.w3.org/2000/svg">
<g clip-path="url(#clip0_3355_12964)">
<path d="M20.7206 58.9892L32.8486 38.0011L31.0968 36.3166C29.0417 38.0011 26.5488 38.978 23.8537 38.978C21.327 38.978 18.9351 38.1021 16.9811 36.5861L14.4882 38.978H9.60326C7.34611 38.978 5.59429 39.7529 4.21304 41.3363C0.204067 45.9516 0.877844 55.9235 1.18104 58.9892H20.7206ZM13.7133 26.6816C14.0502 29.4778 15.1956 31.9371 16.9137 33.7563C17.2843 34.1267 17.6549 34.4973 18.0592 34.8005C18.5645 35.2048 19.1035 35.5417 19.6762 35.8449C20.9564 36.5186 22.3713 36.8892 23.8873 36.8892C25.4035 36.8892 26.8183 36.5186 28.0985 35.8449C28.6712 35.5417 29.2103 35.2048 29.7155 34.8005C30.1197 34.4636 30.4904 34.1267 30.8608 33.7563C32.5454 31.9371 33.7245 29.4778 34.0277 26.7153C34.0614 26.7153 34.095 26.7153 34.1288 26.7153C35.9143 26.7153 37.3292 25.0645 37.3292 23.0432C37.3292 21.7967 36.7902 20.7187 35.9817 20.0449H12.2647C11.4562 20.7187 10.9171 21.7967 10.9171 23.0432C10.9508 24.8961 12.1299 26.4121 13.7133 26.6816ZM18.9014 4.17742C15.3978 5.96293 12.6353 9.53395 11.5909 13.0039L11.3551 13.7451H9.43482V17.9562H11.5235H14.4882H15.7346H31.9727H33.1855H37.8009V17.754V13.7451H35.9143L35.6785 13.0039C34.6341 9.53395 31.8716 5.99662 28.368 4.21111V12.128V13.2397C28.368 13.3071 28.368 13.3408 28.368 13.3745C28.3343 13.7451 28.2669 14.082 28.0985 14.4188C27.6605 15.2611 26.7846 15.8675 25.7739 15.8675H25.2349H21.5291C20.5858 15.8675 19.7436 15.3621 19.3057 14.621C19.1035 14.3178 19.0025 13.981 18.9351 13.6103C18.9014 13.4756 18.9014 13.3745 18.9014 13.2397V12.2964V4.17742ZM21.5291 14.7557H25.7402C26.3466 14.7557 26.852 14.4188 27.1215 13.9135C27.2562 13.6777 27.3236 13.4419 27.3236 13.1724V12.8692V11.6227V3.67209V2.52667V2.08871C27.3236 1.8192 27.2562 1.58338 27.1889 1.34756C26.8857 0.572711 26.1108 0 25.2349 0H21.5291C20.7206 0 20.0468 0.6064 19.9794 1.38124C19.9794 1.44862 19.9457 1.516 19.9457 1.58338V2.52667V3.67209V11.7574V13.0376V13.1724C19.9457 13.5092 20.0468 13.8124 20.2153 14.082C20.5185 14.4862 20.9901 14.7557 21.5291 14.7557ZM39.3169 50.567H43.5617L44.3702 43.964L44.6061 42.0774L44.7409 41.0666H43.9323H42.5848H38.1377L39.3169 50.567ZM38.8788 51.645H44.1343V56.9005H38.8788V51.645ZM41.237 28.9724C40.8665 28.9724 40.496 29.1746 40.2938 29.5115L36.0489 36.8893L35.4425 37.9336L34.8361 38.9779L23.6178 58.4165C23.5168 58.585 23.4831 58.7871 23.4831 58.9555C23.4831 59.124 23.5168 59.3261 23.6178 59.4609C23.82 59.7979 24.1569 59.9999 24.5611 59.9999H47.0653H48.1096H57.9804C58.5869 59.9999 59.0584 59.5282 59.0584 58.9218C59.0584 58.6523 58.9574 58.4502 58.8226 58.2481L42.1803 29.5115C41.9782 29.1746 41.6414 28.9724 41.237 28.9724ZM48.2443 57.9449H47.1999H46.1557H26.414L37.3629 39.0116L37.9693 37.9674L38.5757 36.923L41.3045 32.2403L56.1613 57.9449H48.2443Z" fill="white"/>
</g>
<defs>
<clipPath id="clip0_3355_12964">
<rect width="60" height="60" fill="white"/>
</clipPath>
</defs>
</svg>
