<svg width="60" height="60" viewBox="0 0 60 60" fill="none" xmlns="http://www.w3.org/2000/svg">
<circle cx="42.5" cy="41.5" r="10.5" fill="white"/>
<path d="M42.75 27.5C50.3439 27.5 56.5 33.6561 56.5 41.25C56.5 48.8439 50.3439 55 42.75 55C35.1561 55 29 48.8439 29 41.25C29 33.6561 35.1561 27.5 42.75 27.5ZM42.75 32.4981L42.5253 32.5182C42.0151 32.6108 41.6128 33.0132 41.5201 33.5234L41.5 33.7481L41.4991 39.9981L35.2441 40L35.0194 40.0201C34.5092 40.1128 34.1069 40.5151 34.0143 41.0253L33.9941 41.25L34.0143 41.4747C34.1069 41.9849 34.5092 42.3872 35.0194 42.4799L35.2441 42.5L41.5016 42.4981L41.5028 48.7587L41.5229 48.9834C41.6155 49.4936 42.0178 49.896 42.5281 49.9886L42.7528 50.0087L42.9775 49.9886C43.4877 49.896 43.89 49.4936 43.9826 48.9834L44.0028 48.7587L44.0016 42.4981L50.2614 42.5L50.4861 42.4799C50.9963 42.3872 51.3987 41.9849 51.4913 41.4747L51.5114 41.25L51.4913 41.0253C51.3987 40.5151 50.9963 40.1128 50.4861 40.0201L50.2614 40L43.9991 39.9981L44 33.7481L43.9799 33.5234C43.8872 33.0132 43.4849 32.6108 42.9747 32.5182L42.75 32.4981ZM34.6351 22.5C36.7214 22.5 38.5425 23.6359 39.5136 25.323C32.0883 26.8241 26.5 33.3845 26.5 41.25C26.5 44.4729 27.4382 47.4766 29.0565 50.003L29.0074 50C22.7928 50 17.7548 44.962 17.7548 38.7474V28.125C17.7548 25.0184 20.2732 22.5 23.3798 22.5H34.6351ZM17.5161 22.5007C16.2323 23.8388 15.402 25.6156 15.2726 27.5837L15.2548 28.125V38.7474C15.2548 40.864 15.733 42.8689 16.5872 44.66C15.7644 44.8826 14.8975 45 14.0031 45C8.47854 45 4 40.5215 4 34.9969V28.125C4 25.1478 6.3129 22.7109 9.23988 22.513L9.625 22.5L17.5161 22.5007ZM48.375 22.5C51.4816 22.5 54 25.0184 54 28.125L54.0021 29.5259C51.0821 26.7228 47.1173 25 42.75 25L42.142 25.0112C41.7533 24.0741 41.1922 23.2234 40.4987 22.5007L48.375 22.5ZM45.25 7.5C48.7018 7.5 51.5 10.2982 51.5 13.75C51.5 17.2018 48.7018 20 45.25 20C41.7982 20 39 17.2018 39 13.75C39 10.2982 41.7982 7.5 45.25 7.5ZM29 5C33.1421 5 36.5 8.35786 36.5 12.5C36.5 16.6421 33.1421 20 29 20C24.8579 20 21.5 16.6421 21.5 12.5C21.5 8.35786 24.8579 5 29 5ZM12.75 7.5C16.2018 7.5 19 10.2982 19 13.75C19 17.2018 16.2018 20 12.75 20C9.29822 20 6.5 17.2018 6.5 13.75C6.5 10.2982 9.29822 7.5 12.75 7.5Z" fill="white"/>
<path d="M44.9808 45.0533H39.956C39.6012 49.1283 45.3318 49.1308 44.9808 45.0533Z" fill="#01458E"/>
<path d="M40.4139 43.3783H44.5175L45.595 41.8486C46.1082 41.1123 46.3463 40.2191 46.2678 39.3251C46.1892 38.4311 45.7989 37.5932 45.1651 36.9577C41.8117 33.7567 36.7649 37.9924 39.342 41.8486L40.4139 43.3783Z" fill="#01458E"/>
<path d="M47.7694 43.687C48.0443 43.8152 48.7549 44.3505 49.073 44.3109C49.9042 44.3308 50.233 43.1572 49.4923 42.748L48.6068 42.2367C47.6451 41.7013 46.8253 43.1208 47.7694 43.687Z" fill="#01458E"/>
<path d="M36.3276 42.2364L35.4416 42.7479C34.7007 43.1572 35.03 44.3303 35.8609 44.311C36.1829 44.3488 36.8857 43.8164 37.1651 43.6873C38.1092 43.1203 37.2901 41.7033 36.3276 42.2364Z" fill="#01458E"/>
<path d="M48.2363 39.6588C48.2363 39.8809 48.3246 40.0939 48.4816 40.2509C48.6387 40.408 48.8517 40.4962 49.0738 40.4962H50.0961C51.1969 40.4776 51.1966 38.8399 50.0961 38.8213H49.0738C48.8517 38.8213 48.6387 38.9095 48.4816 39.0666C48.3246 39.2236 48.2363 39.4367 48.2363 39.6588Z" fill="#01458E"/>
<path d="M34.8375 40.4962H35.8598C36.9606 40.4776 36.9603 38.8399 35.8598 38.8213H34.8375C34.6154 38.8213 34.4023 38.9095 34.2453 39.0666C34.0882 39.2236 34 39.4366 34 39.6588C34 39.8809 34.0882 40.0939 34.2453 40.2509C34.4023 40.408 34.6154 40.4962 34.8375 40.4962Z" fill="#01458E"/>
<path d="M48.1891 37.1928C48.511 37.2305 49.2133 36.6979 49.4927 36.5689C50.4372 36.0025 49.6165 34.5831 48.6552 35.1185L47.7698 35.6299C47.0287 36.039 47.3583 37.2124 48.1891 37.1928Z" fill="#01458E"/>
<path d="M35.4393 36.5688C35.7142 36.6971 36.4252 37.2322 36.7435 37.1925C37.5748 37.2121 37.9035 36.0386 37.1628 35.6293L36.2768 35.118C35.314 34.5842 34.4956 36.0023 35.4393 36.5688Z" fill="#01458E"/>
</svg>
