<svg width="60" height="60" viewBox="0 0 60 60" fill="none" xmlns="http://www.w3.org/2000/svg">
<g clip-path="url(#clip0_3355_12967)">
<path d="M21.6191 25.851L27.5976 30.4624C27.8279 32.3211 29.3947 33.766 31.3159 33.766C33.3965 33.766 35.0823 32.0792 35.0823 29.9996C35.0823 29.9199 35.064 29.8441 35.0583 29.7653L43.819 19.4013C44.4295 18.7157 44.4411 17.7278 43.844 17.1979C43.2477 16.6669 42.2694 16.7936 41.6588 17.4801L33.0517 26.6758C32.5294 26.4022 31.9457 26.2332 31.3158 26.2332C30.6429 26.2332 30.0197 26.4242 29.4724 26.7344L23.8444 22.8153C23.1185 22.2806 22.0299 22.5282 21.4144 23.3675C20.8011 24.2044 20.8914 25.3172 21.6191 25.851Z" fill="white"/>
<path d="M51.5992 9.7176C46.4196 4.53123 39.2266 1.3149 31.3164 1.3169V8.26975C37.3285 8.27174 42.7386 10.6969 46.6825 14.6342C50.6189 18.5772 53.044 23.9882 53.046 29.9994C53.044 36.0104 50.6189 41.4214 46.6825 45.3645C42.7386 49.3027 37.3285 51.7279 31.3164 51.7288C25.3054 51.7279 19.8944 49.3027 15.9513 45.3645C12.014 41.4214 9.58881 36.0104 9.58694 29.9994C9.58787 28.0283 9.8567 26.1302 10.3444 24.3223L13.1623 26.0774C13.5358 26.3089 13.9899 26.3579 14.3624 26.2052C14.7378 26.0506 14.9835 25.7174 15.0124 25.3181L16.226 9.4258C16.2585 8.97065 16.0089 8.51174 15.5847 8.2449C15.1565 7.98193 14.6333 7.95779 14.2406 8.19111L0.51229 16.2855C0.165766 16.4881 -0.0244293 16.8548 0.00252386 17.258C0.0293598 17.6633 0.27229 18.0482 0.646704 18.2805L4.24413 20.5213C3.20444 23.4929 2.63315 26.6842 2.63315 29.9994C2.63127 37.9085 5.84948 45.1014 11.034 50.2821C16.2145 55.4665 23.4065 58.6847 31.3165 58.6828C39.2258 58.6847 46.4197 55.4665 51.5994 50.2821C56.7837 45.1014 60.002 37.9085 60.0001 29.9994C60.0019 22.0893 56.7836 14.8963 51.5992 9.7176Z" fill="white"/>
</g>
<defs>
<clipPath id="clip0_3355_12967">
<rect width="60" height="60" fill="white"/>
</clipPath>
</defs>
</svg>
