<svg width="51" height="51" viewBox="0 0 51 51" fill="none" xmlns="http://www.w3.org/2000/svg">
    <path d="M7.78462 23.1543H1.73438L9.80207 31.222L17.8705 23.1543H11.8202C11.8396 16.4801 17.2451 11.0739 23.9193 11.0538C25.8841 11.0912 27.8149 11.5738 29.5661 12.466L32.5902 9.44193C29.9508 7.91463 26.9677 7.08131 23.9193 7.021C15.019 7.04526 7.80958 14.254 7.78462 23.1543ZM39.9146 27.9089C39.8951 34.5831 34.4896 39.9893 27.8154 40.0094C25.8507 39.972 23.9199 39.4895 22.1687 38.5972L19.1446 41.6213C21.7839 43.1486 24.7671 43.9819 27.8154 44.0422C36.7151 44.0166 43.9238 36.8085 43.9501 27.9089H50.0004L41.9327 19.8412L33.8643 27.9089H39.9146Z" fill="white"/>
    <path d="M22.9244 22.7715C22.9244 23.8578 22.1787 24.7385 21.2589 24.7385C20.3392 24.7385 19.5938 23.8578 19.5938 22.7715C19.5938 21.6853 20.3392 20.8047 21.2589 20.8047C22.1787 20.8047 22.9244 21.6853 22.9244 22.7715Z" fill="white"/>
    <path d="M23.1569 26.2403C23.2772 26.167 23.4103 26.1192 23.5481 26.0964C23.2683 25.7015 23.07 25.278 22.9555 24.7711C22.9241 24.5859 22.6705 24.5642 22.4819 24.7178C22.1292 25.0054 21.7177 25.1978 21.2586 25.1978C20.7907 25.1978 20.3602 25.0117 20.0151 24.7001C19.905 24.6006 19.7428 24.5856 19.6161 24.6629C18.9609 25.0632 18.4649 25.6984 18.2486 26.4529C18.1905 26.6551 18.2313 26.8735 18.3581 27.0417C18.485 27.2098 18.6834 27.3089 18.894 27.3089H21.8946C22.2538 26.8945 22.6777 26.5328 23.1569 26.2403Z" fill="white"/>
    <path d="M29.0391 22.7715C29.0391 23.8578 29.7846 24.7385 30.7044 24.7385C31.6243 24.7385 32.3697 23.8578 32.3697 22.7715C32.3697 21.6853 31.6243 20.8047 30.7044 20.8047C29.7846 20.8047 29.0391 21.6853 29.0391 22.7715Z" fill="white"/>
    <path d="M28.8052 26.2403C28.685 26.167 28.5518 26.1192 28.4141 26.0964C28.6939 25.7015 28.8921 25.278 29.0067 24.7711C29.0381 24.5859 29.2917 24.5642 29.4803 24.7178C29.833 25.0054 30.2445 25.1978 30.7035 25.1978C31.1714 25.1978 31.6019 25.0117 31.9471 24.7001C32.0572 24.6006 32.2194 24.5856 32.3461 24.6629C33.0013 25.0632 33.4973 25.6984 33.7135 26.4529C33.7716 26.6551 33.7308 26.8735 33.6041 27.0417C33.4771 27.2098 33.2788 27.3089 33.0683 27.3089H30.0675C29.7083 26.8945 29.2845 26.5328 28.8052 26.2403Z" fill="white"/>
    <path d="M30.5196 29.4848C30.1938 28.3477 29.4549 27.3862 28.4767 26.7695C28.2837 26.648 28.0332 26.6676 27.8621 26.8184C27.337 27.2809 26.6874 27.5561 25.982 27.5561C25.2627 27.5561 24.6014 27.2701 24.071 26.7914C23.9017 26.6384 23.6525 26.6154 23.4578 26.7344C22.4508 27.3493 21.6887 28.3255 21.3563 29.4849C21.267 29.7959 21.3296 30.1312 21.5244 30.3899C21.7196 30.6483 22.0244 30.8004 22.3481 30.8004H29.5278C29.8516 30.8004 30.1566 30.6487 30.3517 30.3899C30.5466 30.1311 30.6089 29.7962 30.5196 29.4848Z" fill="white"/>
    <path d="M28.5403 23.8273C28.5403 25.4966 27.3945 26.8501 25.981 26.8501C24.5676 26.8501 23.4219 25.4966 23.4219 23.8273C23.4219 22.1577 24.5676 20.8047 25.981 20.8047C27.3946 20.8047 28.5403 22.1578 28.5403 23.8273Z" fill="white"/>
</svg>
