<svg width="60" height="60" viewBox="0 0 60 60" fill="none" xmlns="http://www.w3.org/2000/svg">
<g clip-path="url(#clip0_3355_12971)">
<path d="M55.3502 16.2661L51.3265 15.461C51.1229 15.2284 50.8726 15.0411 50.5942 14.9095C50.9106 14.5558 51.1794 14.1982 51.3834 13.9021C51.8754 13.1884 52.2851 12.4194 52.5695 11.6778C52.7092 11.365 52.8276 11.0506 52.9251 10.7424C53.3061 10.4224 53.5304 9.94427 53.5304 9.44293V8.21464C53.5304 7.86147 53.4204 7.51736 53.2167 7.23103V5.50154C53.2167 2.46786 50.7485 0 47.7147 0H45.9309C42.8978 0 40.4292 2.46786 40.4292 5.50154V7.23117C40.2262 7.51736 40.115 7.86175 40.115 8.2145V9.44279C40.115 9.94413 40.3391 10.4214 40.7211 10.742C40.8182 11.0497 40.9371 11.3646 41.0771 11.6782C41.3606 12.4194 41.7706 13.1884 42.263 13.9017C42.4675 14.1986 42.7362 14.5565 43.0542 14.9117C42.7765 15.0435 42.528 15.2302 42.3247 15.4618L38.3854 16.2598C38.3631 16.2892 38.3413 16.319 38.3183 16.3478C38.2466 16.5382 38.1698 16.7265 38.0886 16.9114C37.9817 17.1851 37.8621 17.4608 37.7305 17.7358L38.9962 17.9889C41.2407 18.4377 42.8696 20.4253 42.8696 22.715V37.2473C42.8696 37.7283 42.8 38.1976 42.6621 38.6492V39.782C42.6621 41.6907 41.4781 43.3276 39.8059 43.9971V52.2263C39.8059 54.1738 41.3848 55.7527 43.3327 55.7527C45.2796 55.7527 46.8584 54.174 46.8584 52.2263C46.8584 54.1738 48.4368 55.7527 50.3851 55.7527C52.3319 55.7527 53.9103 54.174 53.9103 52.2263V37.1799C54.2194 37.3815 54.5873 37.4993 54.9833 37.4993C56.069 37.4993 56.9474 36.6196 56.9474 35.535V33.942C57.0809 33.6558 57.155 33.3368 57.155 33.0005V18.4679C57.1549 17.3976 56.3992 16.4758 55.3502 16.2661ZM45.7674 19.948C45.7525 20.0919 45.6513 20.2125 45.511 20.2512C45.4796 20.2602 45.4484 20.264 45.4166 20.264C45.3077 20.264 45.2026 20.2137 45.1352 20.124L44.144 18.8095C44.0982 18.7484 44.073 18.6738 44.073 18.597L44.0741 16.4903C44.0744 16.3666 44.1393 16.252 44.2453 16.1878C44.3507 16.124 44.4823 16.1211 44.592 16.1783C44.8799 16.3311 45.1684 16.4336 45.4479 16.4829C45.616 16.5133 45.7384 16.6596 45.7384 16.8302V17.7094C45.7894 17.7296 45.8348 17.7603 45.8717 17.8016C45.9387 17.8759 45.9712 17.9748 45.9608 18.0737L45.7674 19.948ZM49.5005 18.8094L48.5114 20.1226C48.4432 20.2126 48.3385 20.2637 48.2298 20.2637C48.1982 20.2637 48.1659 20.2591 48.1344 20.2509C47.9945 20.2121 47.893 20.0914 47.8782 19.9472L47.6855 18.0733C47.6752 17.9744 47.7071 17.8757 47.7742 17.8011C47.8109 17.7599 47.8562 17.7292 47.9074 17.709V16.8298C47.9074 16.6591 48.0301 16.5128 48.1986 16.4825C48.4769 16.4333 48.7653 16.331 49.0537 16.1782C49.1639 16.1208 49.2948 16.124 49.4003 16.1877C49.5069 16.2516 49.5708 16.3665 49.5708 16.4901L49.5712 18.5972C49.5712 18.6739 49.5464 18.7485 49.5005 18.8094ZM49.8593 12.8068C48.9968 14.0578 48.1892 14.6175 47.77 14.6175H45.876C45.4571 14.6175 44.6487 14.0577 43.7864 12.8068C43.1063 11.8197 42.6329 10.7279 42.5219 9.88509L42.5026 9.739L42.1601 9.51688C42.0601 9.45156 41.9995 9.34071 41.9995 9.22081V8.64092C41.9995 8.44609 42.1579 8.28789 42.3526 8.28789H42.4962V7.65885C42.4962 7.52515 42.5718 7.40344 42.6913 7.34342C43.1767 7.10166 44.1406 6.69446 45.1382 6.69446C45.9334 6.69446 46.5934 6.95933 47.0992 7.48129C47.7288 8.13303 48.4557 8.4628 49.2569 8.4628C49.712 8.4628 50.1808 8.35585 50.6523 8.14403C50.7613 8.09515 50.8881 8.10476 50.9889 8.17008C51.0361 8.2003 51.0734 8.24082 51.1011 8.28775H51.2935C51.4883 8.28775 51.6466 8.44595 51.6466 8.64078V9.22081C51.6466 9.34057 51.5856 9.45142 51.4861 9.51674L51.144 9.739L51.1241 9.88467C51.013 10.7276 50.5395 11.8197 49.8593 12.8068Z" fill="white"/>
<path d="M17.3359 39.7821V38.6471C17.1984 38.1956 17.129 37.727 17.129 37.2475V22.7128C17.129 20.4289 18.7536 18.442 20.9917 17.989L22.2016 17.7441C22.0686 17.4659 21.9474 17.1874 21.8398 16.9111C21.7582 16.7254 21.6814 16.5372 21.61 16.3477C21.5835 16.3144 21.558 16.2804 21.5326 16.2462L17.6083 15.4611C17.4048 15.2286 17.1547 15.0413 16.8762 14.9097C17.1927 14.5559 17.4612 14.1983 17.6654 13.9022C18.1575 13.1885 18.5671 12.4195 18.8513 11.6779C18.9912 11.3652 19.1094 11.0507 19.207 10.7425C19.5879 10.4225 19.8125 9.94441 19.8125 9.44307V8.21478C19.8125 7.86161 19.7024 7.51749 19.4989 7.23117V5.50154C19.4989 2.46786 17.0305 0 13.9964 0H12.2129C9.17975 0 6.71147 2.46786 6.71147 5.50154V7.23117C6.50801 7.51736 6.39688 7.86175 6.39688 8.2145V9.44279C6.39688 9.94413 6.62137 10.4214 7.00322 10.742C7.10015 11.0497 7.21894 11.3646 7.35904 11.6782C7.64244 12.4194 8.05242 13.1884 8.54471 13.9017C8.74943 14.1986 9.01806 14.5565 9.33586 14.9117C9.05831 15.0435 8.80959 15.2302 8.60655 15.4618L4.64301 16.2648C3.59646 16.4768 2.84375 17.3967 2.84375 18.4656V33.0006C2.84375 33.3369 2.91826 33.6561 3.05069 33.9422V35.5352C3.05069 36.6197 3.92985 37.4995 5.01512 37.4995C5.41062 37.4995 5.77953 37.3815 6.08772 37.18V52.2265C6.08772 54.1741 7.66653 55.7529 9.61438 55.7529C11.5613 55.7529 13.1401 54.1743 13.1401 52.2265C13.1401 54.1741 14.7183 55.7529 16.667 55.7529C18.6138 55.7529 20.192 54.1743 20.192 52.2265V43.9971C18.5202 43.3274 17.3359 41.6904 17.3359 39.7821ZM12.0492 19.948C12.0343 20.0919 11.9332 20.2125 11.793 20.2512C11.7615 20.2602 11.7302 20.264 11.6986 20.264C11.5894 20.264 11.4844 20.2137 11.4173 20.124L10.4261 18.8095C10.38 18.7484 10.3553 18.6738 10.3553 18.597L10.3561 16.4903C10.3564 16.3666 10.4214 16.252 10.5274 16.1878C10.6327 16.124 10.7643 16.1211 10.8739 16.1783C11.162 16.3311 11.4506 16.4336 11.7299 16.4829C11.8979 16.5133 12.0205 16.6596 12.0205 16.8302V17.7094C12.0711 17.7296 12.1166 17.7603 12.1537 17.8016C12.2205 17.8759 12.253 17.9748 12.2428 18.0737L12.0492 19.948ZM15.7824 18.8094L14.7933 20.1226C14.7253 20.2126 14.6204 20.2637 14.5117 20.2637C14.4801 20.2637 14.4479 20.2591 14.4164 20.2509C14.2767 20.2121 14.1751 20.0914 14.1603 19.9472L13.9676 18.0733C13.9573 17.9744 13.9893 17.8757 14.056 17.8011C14.0928 17.7599 14.1382 17.7292 14.1896 17.709V16.8298C14.1896 16.6591 14.3122 16.5128 14.4805 16.4825C14.759 16.4333 15.0471 16.331 15.3358 16.1782C15.4457 16.1208 15.5769 16.124 15.6824 16.1877C15.789 16.2516 15.8529 16.3665 15.8529 16.4901L15.8532 18.5972C15.853 18.6739 15.8285 18.7485 15.7824 18.8094ZM16.141 12.8068C15.2786 14.0578 14.4713 14.6175 14.0521 14.6175H12.1577C11.7391 14.6175 10.9307 14.0577 10.0685 12.8068C9.38808 11.8197 8.91473 10.7279 8.80374 9.88509L8.78424 9.739L8.44208 9.51688C8.34209 9.45156 8.28151 9.34071 8.28151 9.22081V8.64092C8.28151 8.44609 8.43957 8.28789 8.6344 8.28789H8.77798V7.65885C8.77798 7.52515 8.85401 7.40344 8.97336 7.34342C9.45911 7.10166 10.4225 6.69446 11.4202 6.69446C12.2154 6.69446 12.8755 6.95933 13.3813 7.48129C14.011 8.13303 14.738 8.4628 15.5391 8.4628C15.9942 8.4628 16.4629 8.35585 16.9344 8.14403C17.0436 8.09515 17.17 8.10476 17.2709 8.17008C17.3179 8.2003 17.3554 8.24082 17.3832 8.28775H17.5756C17.7704 8.28775 17.9287 8.44595 17.9287 8.64078V9.22081C17.9287 9.34057 17.8677 9.45142 17.7679 9.51674L17.426 9.739L17.4062 9.88467C17.2948 10.7276 16.8216 11.8197 16.141 12.8068Z" fill="white"/>
<path d="M40.0886 38.1889C40.2221 37.9029 40.2962 37.5836 40.2962 37.2473V22.7149C40.2962 21.6445 39.5404 20.7226 38.4916 20.5127L34.4678 19.7078C34.2643 19.4752 34.014 19.2878 33.7356 19.1564C34.0521 18.8024 34.3205 18.445 34.5248 18.149C35.0168 17.4352 35.4265 16.6663 35.7106 15.9245C35.8505 15.6117 35.9688 15.2974 36.0661 14.9889C36.447 14.6692 36.6719 14.1908 36.6719 13.6894V12.4612C36.6719 12.1081 36.5617 11.7639 36.358 11.4775V9.74847C36.358 6.71479 33.8899 4.24707 30.8561 4.24707H29.0722C26.039 4.24707 23.5707 6.71479 23.5707 9.74847V11.4781C23.3674 11.7643 23.2563 12.1087 23.2563 12.4614V13.6897C23.2563 14.1911 23.4806 14.6683 23.8626 14.9889C23.9597 15.2967 24.0783 15.6118 24.2184 15.9252C24.5018 16.6666 24.9117 17.4354 25.4041 18.1489C25.6087 18.4458 25.8773 18.8037 26.1952 19.1587C25.9175 19.2904 25.6691 19.4774 25.4661 19.7089L21.5024 20.5119C20.4558 20.7237 19.7031 21.6438 19.7031 22.7128V37.2475C19.7031 37.5839 19.7776 37.9032 19.9099 38.1892V39.7822C19.9099 40.8668 20.7891 41.7468 21.8744 41.7468C22.27 41.7468 22.6388 41.6287 22.9468 41.4272V56.4733C22.9468 58.4211 24.5259 59.9999 26.4738 59.9999C28.4205 59.9999 29.9995 58.4212 29.9995 56.4733C29.9995 58.4211 31.5774 59.9999 33.5261 59.9999C35.473 59.9999 37.051 58.4212 37.051 56.4733V41.4268C37.36 41.6284 37.7283 41.7465 38.1244 41.7465C39.2097 41.7465 40.0884 40.8665 40.0884 39.782V38.1889H40.0886ZM28.9085 24.1951C28.8937 24.3389 28.7923 24.4593 28.6524 24.4981C28.621 24.507 28.5896 24.5109 28.558 24.5109C28.4488 24.5109 28.3436 24.4607 28.2766 24.371L27.2852 23.0562C27.2393 22.9952 27.2144 22.9204 27.2144 22.8437L27.2155 20.7369C27.2157 20.6131 27.2805 20.4987 27.3866 20.4345C27.492 20.3707 27.6238 20.3675 27.7332 20.4248C28.0214 20.5778 28.3096 20.6801 28.5893 20.7295C28.7571 20.7598 28.8798 20.9063 28.8798 21.0769V21.9557C28.9306 21.9762 28.976 22.007 29.0131 22.0479C29.0799 22.1224 29.1122 22.2212 29.1019 22.3202L28.9085 24.1951ZM32.6417 23.0562L31.6524 24.3697C31.5845 24.4595 31.4798 24.5106 31.3709 24.5106C31.3393 24.5106 31.3071 24.5061 31.2755 24.4978C31.136 24.4587 31.0344 24.3384 31.0197 24.194L30.8269 22.3202C30.8166 22.2212 30.8485 22.1224 30.9152 22.0479C30.952 22.007 30.9977 21.9762 31.0488 21.9557V21.0769C31.0488 20.9061 31.1716 20.7598 31.3397 20.7295C31.6184 20.6803 31.9064 20.5779 32.1952 20.4251C32.3049 20.3679 32.4364 20.3711 32.5418 20.4349C32.6484 20.4987 32.7124 20.6134 32.7124 20.7373L32.7126 22.8442C32.7124 22.9207 32.6878 22.9953 32.6417 23.0562ZM33.0001 17.0539C32.138 18.3046 31.3304 18.8644 30.9112 18.8644H29.0168C28.5982 18.8644 27.7898 18.3044 26.9276 17.0539C26.2473 16.0668 25.7738 14.975 25.6628 14.1319L25.6435 13.9859L25.3013 13.7637C25.2012 13.6985 25.1407 13.5876 25.1407 13.4679V12.888C25.1407 12.693 25.2987 12.535 25.4936 12.535H25.6372V11.9059C25.6372 11.7721 25.713 11.6502 25.8323 11.5903C26.3181 11.3485 27.2818 10.9414 28.2794 10.9414C29.0746 10.9414 29.7347 11.2063 30.2405 11.7284C30.8701 12.3798 31.5971 12.7099 32.3982 12.7099C32.8533 12.7099 33.3221 12.6028 33.7936 12.3911C33.9027 12.3421 34.029 12.3518 34.13 12.4169C34.177 12.4474 34.2145 12.4876 34.2425 12.5348H34.4348C34.6296 12.5348 34.7878 12.6927 34.7878 12.8879V13.4679C34.7878 13.5876 34.727 13.6985 34.6273 13.7637L34.2854 13.9859L34.2656 14.1317C34.1542 14.9746 33.6808 16.0668 33.0001 17.0539Z" fill="white"/>
</g>
<defs>
<clipPath id="clip0_3355_12971">
<rect width="60" height="60" fill="white"/>
</clipPath>
</defs>
</svg>
