<svg width="176" height="30" viewBox="0 0 176 30" fill="none" xmlns="http://www.w3.org/2000/svg">
<path fill-rule="evenodd" clip-rule="evenodd" d="M11.4812 1.39354C10.8678 1.74524 10.1612 2.36449 9.91098 2.76931C9.30972 3.74199 7.28413 10.3448 7.28413 11.3316C7.28413 12.43 8.01093 13.7769 8.94523 14.4099L9.74554 14.9519L26.2905 15.0603L42.8357 15.1688L43.5443 15.8771L44.2531 16.5855L44.3201 20.7991L44.3871 25.0129L43.6321 25.8366L42.8771 26.6606L24.3759 26.7254C11.6534 26.7699 5.6241 26.7174 5.0725 26.5574C3.87843 26.2107 3.458 25.4541 3.33159 23.4227C3.23619 21.8913 3.16052 21.6478 2.64035 21.2002C2.27391 20.8852 1.7776 20.6978 1.30925 20.6978H0.5625L0.564667 23.0287C0.566402 25.0168 0.641643 25.5203 1.07573 26.4526C1.61996 27.6213 2.62257 28.6044 3.75376 29.0786C4.32184 29.3165 8.05061 29.37 23.8102 29.3661C42.4699 29.3616 43.2023 29.3462 44.0913 28.9427C45.1559 28.4596 45.9452 27.6751 46.6063 26.4437C47.041 25.6337 47.0718 25.2692 47.0718 20.9147V16.2529L46.3984 15.0603C45.93 14.231 45.407 13.6696 44.6809 13.2173L43.6371 12.5668L27.5015 12.4584L11.3661 12.35L10.8429 11.7416C10.5552 11.407 10.3201 10.9192 10.3206 10.6575C10.321 10.3958 10.7091 8.91765 11.1831 7.37254C11.7785 5.43238 12.2156 4.39269 12.5966 4.01173L13.148 3.46012L23.55 3.39984C32.5676 3.34759 34.0377 3.38401 34.5969 3.67304C35.4063 4.09174 35.5323 4.33285 36.4647 7.24938C37.332 9.96188 37.6295 10.2902 39.2205 10.2902C40.1173 10.2902 40.2552 10.2347 40.1635 9.91071C39.0028 5.81095 37.9779 3.04099 37.3623 2.33999C35.9406 0.720732 36.2754 0.759546 23.763 0.75651L12.5964 0.753906L11.4812 1.39354ZM7.11934 17.4693C6.18135 17.9337 5.512 18.6772 5.23815 19.5595L5.08659 20.0474H8.78197H12.4771L12.2514 19.4511C11.9277 18.5968 11.2096 17.8823 10.2113 17.4216C9.07533 16.8973 8.24922 16.9101 7.11934 17.4693ZM37.2064 17.4721C36.3172 17.8266 35.0379 19.2757 35.0379 19.9281C35.0379 19.9938 36.6479 20.0474 38.6156 20.0474C42.5254 20.0474 42.5228 20.0484 41.7672 18.8093C40.9727 17.5061 38.753 16.8555 37.2064 17.4721ZM14.5435 17.8472C14.4862 17.9045 14.4394 18.4229 14.4394 18.9994V20.0474H23.763H33.0865V18.9778C33.0865 18.1467 33.0019 17.8832 32.7071 17.7958C32.2326 17.6551 14.6859 17.705 14.5435 17.8472ZM5.27393 22.2315C5.47514 23.0005 6.70433 24.1059 7.68526 24.3997C9.04671 24.8076 10.4004 24.4142 11.458 23.3032C12.8585 21.8323 12.7677 21.782 8.71388 21.782C5.22167 21.782 5.15858 21.7902 5.27393 22.2315ZM14.4823 22.9203L14.5478 24.0587L23.4377 24.063C28.3272 24.0654 32.4985 24.0296 32.7071 23.9834C33.0052 23.9177 33.0865 23.6727 33.0865 22.8407V21.782H23.7517H14.4166L14.4823 22.9203ZM35.0379 21.9667C35.0379 22.3644 36.0614 23.6397 36.7556 24.1077C38.2366 25.1057 40.6683 24.6025 41.7054 23.0832C42.5872 21.7913 42.5651 21.782 38.6156 21.782C36.6479 21.782 35.0379 21.865 35.0379 21.9667Z" fill="#0E0E0E"/>
<rect x="4.68945" y="16.1064" width="38.2539" height="9.18559" fill="white"/>
<rect x="14.2246" y="17.2114" width="19.1851" height="6.9764" rx="2.67293" fill="#7DDB95"/>
<rect x="35.0957" y="17.2114" width="6.9764" height="6.9764" rx="3.4882" fill="#7DDB95"/>
<rect x="5.5625" y="17.2114" width="6.9764" height="6.9764" rx="3.4882" fill="#7DDB95"/>
<rect x="5.5625" y="19.5366" width="36.5098" height="2.32547" fill="white"/>
<path d="M65.5454 23.6953L60.831 7.49574H65.1578L67.602 18.1109H67.7364L70.5286 7.49574H74.0565L76.8487 18.1346H76.9832L79.4352 7.49574H83.7541L79.0476 23.6953H75.2746L72.3558 13.8712H72.2293L69.3105 23.6953H65.5454ZM87.448 23.901C86.6728 23.901 85.9847 23.7718 85.3835 23.5134C84.7876 23.2497 84.3157 22.8542 83.9676 22.3269C83.6249 21.7943 83.4535 21.1272 83.4535 20.3257C83.4535 19.6507 83.5721 19.0812 83.8094 18.6171C84.0467 18.1531 84.3737 17.776 84.7903 17.486C85.2069 17.196 85.6867 16.9771 86.2299 16.8295C86.773 16.6766 87.3531 16.5737 87.9701 16.521C88.6609 16.4577 89.2172 16.3918 89.6391 16.3232C90.0609 16.2494 90.3668 16.1466 90.5566 16.0148C90.7517 15.8776 90.8493 15.6852 90.8493 15.4373V15.3978C90.8493 14.9917 90.7095 14.678 90.4301 14.4565C90.1506 14.235 89.7735 14.1243 89.2989 14.1243C88.7874 14.1243 88.3761 14.235 88.065 14.4565C87.7539 14.678 87.5561 14.9838 87.4717 15.374L83.9044 15.2475C84.0098 14.5092 84.2814 13.8501 84.7191 13.27C85.162 12.6847 85.7685 12.2259 86.5384 11.8937C87.3135 11.5562 88.2443 11.3874 89.3306 11.3874C90.1058 11.3874 90.8203 11.4797 91.4742 11.6643C92.1281 11.8436 92.6976 12.1072 93.1827 12.4553C93.6679 12.798 94.0423 13.2199 94.3059 13.7209C94.5749 14.2218 94.7093 14.794 94.7093 15.4373V23.6953H91.0708V22.0026H90.9758C90.7596 22.4139 90.4828 22.7619 90.1453 23.0467C89.8131 23.3315 89.4202 23.545 88.9667 23.6874C88.5185 23.8298 88.0123 23.901 87.448 23.901ZM88.6424 21.3698C89.059 21.3698 89.4334 21.2854 89.7656 21.1167C90.1031 20.9479 90.3721 20.7159 90.5724 20.4206C90.7728 20.12 90.873 19.772 90.873 19.3765V18.2216C90.7623 18.2796 90.6278 18.3324 90.4696 18.3798C90.3167 18.4273 90.1479 18.4721 89.9634 18.5143C89.7788 18.5565 89.589 18.5934 89.3939 18.625C89.1987 18.6567 89.0115 18.6857 88.8323 18.712C88.4684 18.7701 88.1573 18.8597 87.8989 18.981C87.6458 19.1023 87.4506 19.2605 87.3135 19.4556C87.1817 19.6454 87.1158 19.8722 87.1158 20.1358C87.1158 20.5366 87.2582 20.8425 87.5429 21.0534C87.833 21.2643 88.1995 21.3698 88.6424 21.3698ZM100.942 7.49574V23.6953H97.0744V7.49574H100.942ZM107.272 7.49574V23.6953H103.404V7.49574H107.272ZM115.414 23.9247C114.143 23.9247 113.046 23.6742 112.123 23.1733C111.206 22.667 110.499 21.9472 110.003 21.0138C109.513 20.0752 109.268 18.9599 109.268 17.6679C109.268 16.4129 109.515 15.316 110.011 14.3774C110.507 13.4335 111.206 12.7005 112.107 12.1784C113.009 11.6511 114.072 11.3874 115.295 11.3874C116.16 11.3874 116.951 11.5219 117.668 11.7908C118.385 12.0598 119.005 12.4579 119.527 12.9852C120.049 13.5126 120.455 14.1638 120.745 14.939C121.035 15.7089 121.18 16.5922 121.18 17.5888V18.5538H110.62V16.3074H117.581C117.576 15.8961 117.478 15.5296 117.288 15.2079C117.098 14.8863 116.837 14.6358 116.505 14.4565C116.178 14.2719 115.801 14.1796 115.374 14.1796C114.942 14.1796 114.554 14.2772 114.211 14.4723C113.869 14.6622 113.597 14.9232 113.397 15.2554C113.196 15.5823 113.091 15.9541 113.08 16.3707V18.6567C113.08 19.1524 113.178 19.5874 113.373 19.9618C113.568 20.3309 113.845 20.6183 114.203 20.824C114.562 21.0297 114.989 21.1325 115.485 21.1325C115.828 21.1325 116.139 21.085 116.418 20.9901C116.698 20.8952 116.938 20.7554 117.138 20.5709C117.338 20.3863 117.489 20.1596 117.589 19.8906L121.14 19.9935C120.993 20.7897 120.668 21.4832 120.167 22.0738C119.672 22.6591 119.021 23.1152 118.214 23.4422C117.407 23.7639 116.474 23.9247 115.414 23.9247ZM130.013 11.5456V14.3932H122.349V11.5456H130.013ZM123.954 8.63478H127.822V19.8748C127.822 20.1121 127.859 20.3046 127.933 20.4522C128.012 20.5946 128.126 20.6974 128.273 20.7607C128.421 20.8187 128.598 20.8477 128.803 20.8477C128.951 20.8477 129.106 20.8345 129.27 20.8082C129.439 20.7765 129.565 20.7502 129.65 20.7291L130.235 23.5213C130.05 23.574 129.789 23.6399 129.452 23.719C129.12 23.7981 128.721 23.8482 128.257 23.8693C127.35 23.9115 126.573 23.8061 125.924 23.5529C125.281 23.2945 124.788 22.8938 124.445 22.3506C124.107 21.8075 123.944 21.1246 123.954 20.3019V8.63478Z" fill="#0E0E0E"/>
<path d="M146.692 13.3649H142.737C142.684 12.9589 142.576 12.5924 142.412 12.2654C142.249 11.9385 142.033 11.659 141.764 11.427C141.495 11.195 141.176 11.0183 140.807 10.897C140.443 10.7705 140.039 10.7072 139.596 10.7072C138.811 10.7072 138.133 10.8997 137.563 11.2846C136.999 11.6696 136.564 12.2259 136.258 12.9536C135.958 13.6813 135.807 14.562 135.807 15.5955C135.807 16.6713 135.96 17.573 136.266 18.3007C136.577 19.0232 137.012 19.569 137.571 19.9381C138.136 20.3019 138.803 20.4839 139.573 20.4839C140.005 20.4839 140.398 20.4285 140.751 20.3178C141.11 20.207 141.424 20.0462 141.692 19.8353C141.967 19.6191 142.191 19.358 142.365 19.0522C142.544 18.741 142.668 18.3904 142.737 18.0002L146.692 18.0239C146.623 18.741 146.415 19.4477 146.067 20.1437C145.724 20.8398 145.252 21.4753 144.651 22.05C144.05 22.6196 143.317 23.0731 142.452 23.4106C141.592 23.748 140.606 23.9168 139.493 23.9168C138.027 23.9168 136.714 23.5951 135.554 22.9518C134.399 22.3032 133.487 21.3592 132.817 20.12C132.148 18.8808 131.813 17.3726 131.813 15.5955C131.813 13.8132 132.153 12.3024 132.833 11.0631C133.514 9.8239 134.434 8.88262 135.594 8.23928C136.754 7.59594 138.054 7.27427 139.493 7.27427C140.474 7.27427 141.381 7.41137 142.214 7.68558C143.048 7.95452 143.781 8.35002 144.413 8.87207C145.046 9.38886 145.56 10.0243 145.956 10.7784C146.351 11.5325 146.597 12.3946 146.692 13.3649ZM152.357 23.901C151.582 23.901 150.894 23.7718 150.293 23.5134C149.697 23.2497 149.225 22.8542 148.877 22.3269C148.534 21.7943 148.362 21.1272 148.362 20.3257C148.362 19.6507 148.481 19.0812 148.718 18.6171C148.956 18.1531 149.283 17.776 149.699 17.486C150.116 17.196 150.596 16.9771 151.139 16.8295C151.682 16.6766 152.262 16.5737 152.879 16.521C153.57 16.4577 154.126 16.3918 154.548 16.3232C154.97 16.2494 155.276 16.1466 155.466 16.0148C155.661 15.8776 155.758 15.6852 155.758 15.4373V15.3978C155.758 14.9917 155.619 14.678 155.339 14.4565C155.06 14.235 154.683 14.1243 154.208 14.1243C153.696 14.1243 153.285 14.235 152.974 14.4565C152.663 14.678 152.465 14.9838 152.381 15.374L148.813 15.2475C148.919 14.5092 149.19 13.8501 149.628 13.27C150.071 12.6847 150.677 12.2259 151.447 11.8937C152.223 11.5562 153.153 11.3874 154.24 11.3874C155.015 11.3874 155.729 11.4797 156.383 11.6643C157.037 11.8436 157.607 12.1072 158.092 12.4553C158.577 12.798 158.951 13.2199 159.215 13.7209C159.484 14.2218 159.618 14.794 159.618 15.4373V23.6953H155.98V22.0026H155.885C155.669 22.4139 155.392 22.7619 155.054 23.0467C154.722 23.3315 154.329 23.545 153.876 23.6874C153.427 23.8298 152.921 23.901 152.357 23.901ZM153.551 21.3698C153.968 21.3698 154.342 21.2854 154.675 21.1167C155.012 20.9479 155.281 20.7159 155.481 20.4206C155.682 20.12 155.782 19.772 155.782 19.3765V18.2216C155.671 18.2796 155.537 18.3324 155.379 18.3798C155.226 18.4273 155.057 18.4721 154.872 18.5143C154.688 18.5565 154.498 18.5934 154.303 18.625C154.108 18.6567 153.921 18.6857 153.741 18.712C153.377 18.7701 153.066 18.8597 152.808 18.981C152.555 19.1023 152.36 19.2605 152.223 19.4556C152.091 19.6454 152.025 19.8722 152.025 20.1358C152.025 20.5366 152.167 20.8425 152.452 21.0534C152.742 21.2643 153.108 21.3698 153.551 21.3698ZM161.983 23.6953V7.49574H165.851V13.626H165.93C166.089 13.2568 166.313 12.9009 166.603 12.5581C166.898 12.2153 167.273 11.9359 167.726 11.7197C168.185 11.4982 168.733 11.3874 169.371 11.3874C170.215 11.3874 171.003 11.6089 171.736 12.0519C172.475 12.4948 173.071 13.1777 173.524 14.1005C173.978 15.0234 174.204 16.1993 174.204 17.6284C174.204 19.0047 173.985 20.1569 173.548 21.085C173.115 22.0131 172.53 22.7092 171.792 23.1733C171.059 23.6373 170.244 23.8693 169.348 23.8693C168.736 23.8693 168.206 23.7691 167.758 23.5688C167.309 23.3684 166.932 23.1047 166.627 22.7778C166.326 22.4508 166.094 22.1001 165.93 21.7257H165.812V23.6953H161.983ZM165.772 17.6205C165.772 18.2744 165.859 18.8439 166.033 19.329C166.213 19.8142 166.468 20.1912 166.801 20.4601C167.138 20.7238 167.541 20.8556 168.011 20.8556C168.485 20.8556 168.889 20.7238 169.221 20.4601C169.553 20.1912 169.804 19.8142 169.972 19.329C170.146 18.8439 170.234 18.2744 170.234 17.6205C170.234 16.9666 170.146 16.3997 169.972 15.9198C169.804 15.44 169.553 15.0682 169.221 14.8045C168.894 14.5409 168.491 14.409 168.011 14.409C167.536 14.409 167.133 14.5382 166.801 14.7966C166.468 15.055 166.213 15.4241 166.033 15.904C165.859 16.3839 165.772 16.956 165.772 17.6205Z" fill="#7DDB95"/>
</svg>
